<svg width="512" height="512" viewBox="0 0 512 512" fill="none" xmlns="http://www.w3.org/2000/svg">
<g clip-path="url(#clip0_40_54)">
<rect width="512" height="512" rx="200" fill="white"/>
<path opacity="0.29" d="M119.847 214C119.468 209.265 117.692 205.572 114.52 202.92C111.395 200.269 106.636 198.943 100.244 198.943C96.1723 198.943 92.8343 199.44 90.2301 200.435C87.6733 201.382 85.7794 202.684 84.5483 204.341C83.3172 205.998 82.678 207.892 82.6307 210.023C82.536 211.775 82.8438 213.361 83.554 214.781C84.3116 216.154 85.4953 217.409 87.1051 218.545C88.715 219.634 90.7746 220.629 93.2841 221.528C95.7936 222.428 98.7765 223.233 102.233 223.943L114.165 226.5C122.214 228.205 129.103 230.454 134.832 233.247C140.562 236.041 145.249 239.331 148.895 243.119C152.541 246.86 155.216 251.074 156.92 255.761C158.672 260.449 159.572 265.562 159.619 271.102C159.572 280.667 157.181 288.763 152.446 295.392C147.711 302.021 140.94 307.063 132.134 310.52C123.374 313.976 112.839 315.705 100.528 315.705C87.8864 315.705 76.8542 313.834 67.4318 310.094C58.0568 306.353 50.7652 300.6 45.5568 292.835C40.3958 285.023 37.7917 275.032 37.7443 262.864H75.2443C75.4811 267.314 76.5938 271.055 78.5824 274.085C80.571 277.116 83.3646 279.412 86.9631 280.974C90.6089 282.537 94.9413 283.318 99.9602 283.318C104.174 283.318 107.702 282.797 110.543 281.756C113.384 280.714 115.538 279.27 117.006 277.423C118.473 275.577 119.231 273.47 119.278 271.102C119.231 268.877 118.497 266.936 117.077 265.278C115.704 263.574 113.431 262.059 110.259 260.733C107.086 259.36 102.801 258.081 97.4034 256.898L82.9148 253.773C70.036 250.979 59.8797 246.315 52.446 239.781C45.0597 233.2 41.3902 224.227 41.4375 212.864C41.3902 203.631 43.8523 195.558 48.8239 188.645C53.8428 181.685 60.7794 176.263 69.6335 172.381C78.535 168.498 88.7386 166.557 100.244 166.557C111.987 166.557 122.143 168.522 130.713 172.452C139.283 176.382 145.888 181.921 150.528 189.071C155.216 196.173 157.583 204.483 157.631 214H119.847ZM315.55 241.273C315.55 257.466 312.401 271.126 306.104 282.253C299.806 293.332 291.307 301.737 280.607 307.466C269.906 313.148 257.974 315.989 244.811 315.989C231.554 315.989 219.574 313.124 208.874 307.395C198.22 301.618 189.745 293.19 183.447 282.111C177.197 270.984 174.072 257.371 174.072 241.273C174.072 225.08 177.197 211.443 183.447 200.364C189.745 189.237 198.22 180.832 208.874 175.151C219.574 169.421 231.554 166.557 244.811 166.557C257.974 166.557 269.906 169.421 280.607 175.151C291.307 180.832 299.806 189.237 306.104 200.364C312.401 211.443 315.55 225.08 315.55 241.273ZM274.925 241.273C274.925 232.561 273.765 225.222 271.445 219.256C269.172 213.242 265.786 208.697 261.288 205.619C256.838 202.494 251.345 200.932 244.811 200.932C238.277 200.932 232.761 202.494 228.263 205.619C223.812 208.697 220.427 213.242 218.107 219.256C215.834 225.222 214.697 232.561 214.697 241.273C214.697 249.985 215.834 257.348 218.107 263.361C220.427 269.327 223.812 273.872 228.263 276.997C232.761 280.075 238.277 281.614 244.811 281.614C251.345 281.614 256.838 280.075 261.288 276.997C265.786 273.872 269.172 269.327 271.445 263.361C273.765 257.348 274.925 249.985 274.925 241.273ZM428.281 216.557C427.665 214.047 426.694 211.846 425.369 209.952C424.043 208.01 422.386 206.377 420.397 205.051C418.456 203.678 416.183 202.66 413.579 201.997C411.022 201.287 408.205 200.932 405.127 200.932C398.498 200.932 392.84 202.518 388.153 205.69C383.513 208.863 379.961 213.432 377.499 219.398C375.085 225.364 373.877 232.561 373.877 240.989C373.877 249.511 375.037 256.803 377.357 262.864C379.677 268.924 383.134 273.564 387.727 276.784C392.319 280.004 398.025 281.614 404.843 281.614C410.856 281.614 415.852 280.738 419.829 278.986C423.853 277.234 426.86 274.748 428.849 271.528C430.837 268.309 431.832 264.521 431.832 260.165L438.65 260.875H405.411V232.75H469.9V252.92C469.9 266.178 467.083 277.518 461.448 286.94C455.861 296.315 448.143 303.512 438.295 308.531C428.494 313.503 417.248 315.989 404.559 315.989C390.402 315.989 377.973 312.982 367.272 306.969C356.571 300.955 348.214 292.385 342.201 281.259C336.235 270.132 333.252 256.898 333.252 241.557C333.252 229.53 335.075 218.877 338.721 209.597C342.414 200.316 347.528 192.48 354.062 186.088C360.596 179.649 368.148 174.795 376.718 171.528C385.288 168.214 394.474 166.557 404.275 166.557C412.892 166.557 420.894 167.788 428.281 170.25C435.714 172.665 442.272 176.121 447.954 180.619C453.683 185.07 458.299 190.349 461.803 196.457C465.307 202.565 467.438 209.265 468.195 216.557H428.281Z" fill="black"/>
<rect x="-266" y="171" width="862" height="138" fill="white"/>
<path opacity="0.46" d="M119.847 224C119.468 219.265 117.692 215.572 114.52 212.92C111.395 210.269 106.636 208.943 100.244 208.943C96.1723 208.943 92.8343 209.44 90.2301 210.435C87.6733 211.382 85.7794 212.684 84.5483 214.341C83.3172 215.998 82.678 217.892 82.6307 220.023C82.536 221.775 82.8438 223.361 83.554 224.781C84.3116 226.154 85.4953 227.409 87.1051 228.545C88.715 229.634 90.7746 230.629 93.2841 231.528C95.7936 232.428 98.7765 233.233 102.233 233.943L114.165 236.5C122.214 238.205 129.103 240.454 134.832 243.247C140.562 246.041 145.249 249.331 148.895 253.119C152.541 256.86 155.216 261.074 156.92 265.761C158.672 270.449 159.572 275.562 159.619 281.102C159.572 290.667 157.181 298.763 152.446 305.392C147.711 312.021 140.94 317.063 132.134 320.52C123.374 323.976 112.839 325.705 100.528 325.705C87.8864 325.705 76.8542 323.834 67.4318 320.094C58.0568 316.353 50.7652 310.6 45.5568 302.835C40.3958 295.023 37.7917 285.032 37.7443 272.864H75.2443C75.4811 277.314 76.5938 281.055 78.5824 284.085C80.571 287.116 83.3646 289.412 86.9631 290.974C90.6089 292.537 94.9413 293.318 99.9602 293.318C104.174 293.318 107.702 292.797 110.543 291.756C113.384 290.714 115.538 289.27 117.006 287.423C118.473 285.577 119.231 283.47 119.278 281.102C119.231 278.877 118.497 276.936 117.077 275.278C115.704 273.574 113.431 272.059 110.259 270.733C107.086 269.36 102.801 268.081 97.4034 266.898L82.9148 263.773C70.036 260.979 59.8797 256.315 52.446 249.781C45.0597 243.2 41.3902 234.227 41.4375 222.864C41.3902 213.631 43.8523 205.558 48.8239 198.645C53.8428 191.685 60.7794 186.263 69.6335 182.381C78.535 178.498 88.7386 176.557 100.244 176.557C111.987 176.557 122.143 178.522 130.713 182.452C139.283 186.382 145.888 191.921 150.528 199.071C155.216 206.173 157.583 214.483 157.631 224H119.847ZM315.55 251.273C315.55 267.466 312.401 281.126 306.104 292.253C299.806 303.332 291.307 311.737 280.607 317.466C269.906 323.148 257.974 325.989 244.811 325.989C231.554 325.989 219.574 323.124 208.874 317.395C198.22 311.618 189.745 303.19 183.447 292.111C177.197 280.984 174.072 267.371 174.072 251.273C174.072 235.08 177.197 221.443 183.447 210.364C189.745 199.237 198.22 190.832 208.874 185.151C219.574 179.421 231.554 176.557 244.811 176.557C257.974 176.557 269.906 179.421 280.607 185.151C291.307 190.832 299.806 199.237 306.104 210.364C312.401 221.443 315.55 235.08 315.55 251.273ZM274.925 251.273C274.925 242.561 273.765 235.222 271.445 229.256C269.172 223.242 265.786 218.697 261.288 215.619C256.838 212.494 251.345 210.932 244.811 210.932C238.277 210.932 232.761 212.494 228.263 215.619C223.812 218.697 220.427 223.242 218.107 229.256C215.834 235.222 214.697 242.561 214.697 251.273C214.697 259.985 215.834 267.348 218.107 273.361C220.427 279.327 223.812 283.872 228.263 286.997C232.761 290.075 238.277 291.614 244.811 291.614C251.345 291.614 256.838 290.075 261.288 286.997C265.786 283.872 269.172 279.327 271.445 273.361C273.765 267.348 274.925 259.985 274.925 251.273ZM428.281 226.557C427.665 224.047 426.694 221.846 425.369 219.952C424.043 218.01 422.386 216.377 420.397 215.051C418.456 213.678 416.183 212.66 413.579 211.997C411.022 211.287 408.205 210.932 405.127 210.932C398.498 210.932 392.84 212.518 388.153 215.69C383.513 218.863 379.961 223.432 377.499 229.398C375.085 235.364 373.877 242.561 373.877 250.989C373.877 259.511 375.037 266.803 377.357 272.864C379.677 278.924 383.134 283.564 387.727 286.784C392.319 290.004 398.025 291.614 404.843 291.614C410.856 291.614 415.852 290.738 419.829 288.986C423.853 287.234 426.86 284.748 428.849 281.528C430.837 278.309 431.832 274.521 431.832 270.165L438.65 270.875H405.411V242.75H469.9V262.92C469.9 276.178 467.083 287.518 461.448 296.94C455.861 306.315 448.143 313.512 438.295 318.531C428.494 323.503 417.248 325.989 404.559 325.989C390.402 325.989 377.973 322.982 367.272 316.969C356.571 310.955 348.214 302.385 342.201 291.259C336.235 280.132 333.252 266.898 333.252 251.557C333.252 239.53 335.075 228.877 338.721 219.597C342.414 210.316 347.528 202.48 354.062 196.088C360.596 189.649 368.148 184.795 376.718 181.528C385.288 178.214 394.474 176.557 404.275 176.557C412.892 176.557 420.894 177.788 428.281 180.25C435.714 182.665 442.272 186.121 447.954 190.619C453.683 195.07 458.299 200.349 461.803 206.457C465.307 212.565 467.438 219.265 468.195 226.557H428.281Z" fill="black"/>
<rect x="-205" y="187" width="862" height="138" fill="white"/>
<path opacity="0.72" d="M119.847 239C119.468 234.265 117.692 230.572 114.52 227.92C111.395 225.269 106.636 223.943 100.244 223.943C96.1723 223.943 92.8343 224.44 90.2301 225.435C87.6733 226.382 85.7794 227.684 84.5483 229.341C83.3172 230.998 82.678 232.892 82.6307 235.023C82.536 236.775 82.8438 238.361 83.554 239.781C84.3116 241.154 85.4953 242.409 87.1051 243.545C88.715 244.634 90.7746 245.629 93.2841 246.528C95.7936 247.428 98.7765 248.233 102.233 248.943L114.165 251.5C122.214 253.205 129.103 255.454 134.832 258.247C140.562 261.041 145.249 264.331 148.895 268.119C152.541 271.86 155.216 276.074 156.92 280.761C158.672 285.449 159.572 290.562 159.619 296.102C159.572 305.667 157.181 313.763 152.446 320.392C147.711 327.021 140.94 332.063 132.134 335.52C123.374 338.976 112.839 340.705 100.528 340.705C87.8864 340.705 76.8542 338.834 67.4318 335.094C58.0568 331.353 50.7652 325.6 45.5568 317.835C40.3958 310.023 37.7917 300.032 37.7443 287.864H75.2443C75.4811 292.314 76.5938 296.055 78.5824 299.085C80.571 302.116 83.3646 304.412 86.9631 305.974C90.6089 307.537 94.9413 308.318 99.9602 308.318C104.174 308.318 107.702 307.797 110.543 306.756C113.384 305.714 115.538 304.27 117.006 302.423C118.473 300.577 119.231 298.47 119.278 296.102C119.231 293.877 118.497 291.936 117.077 290.278C115.704 288.574 113.431 287.059 110.259 285.733C107.086 284.36 102.801 283.081 97.4034 281.898L82.9148 278.773C70.036 275.979 59.8797 271.315 52.446 264.781C45.0597 258.2 41.3902 249.227 41.4375 237.864C41.3902 228.631 43.8523 220.558 48.8239 213.645C53.8428 206.685 60.7794 201.263 69.6335 197.381C78.535 193.498 88.7386 191.557 100.244 191.557C111.987 191.557 122.143 193.522 130.713 197.452C139.283 201.382 145.888 206.921 150.528 214.071C155.216 221.173 157.583 229.483 157.631 239H119.847ZM315.55 266.273C315.55 282.466 312.401 296.126 306.104 307.253C299.806 318.332 291.307 326.737 280.607 332.466C269.906 338.148 257.974 340.989 244.811 340.989C231.554 340.989 219.574 338.124 208.874 332.395C198.22 326.618 189.745 318.19 183.447 307.111C177.197 295.984 174.072 282.371 174.072 266.273C174.072 250.08 177.197 236.443 183.447 225.364C189.745 214.237 198.22 205.832 208.874 200.151C219.574 194.421 231.554 191.557 244.811 191.557C257.974 191.557 269.906 194.421 280.607 200.151C291.307 205.832 299.806 214.237 306.104 225.364C312.401 236.443 315.55 250.08 315.55 266.273ZM274.925 266.273C274.925 257.561 273.765 250.222 271.445 244.256C269.172 238.242 265.786 233.697 261.288 230.619C256.838 227.494 251.345 225.932 244.811 225.932C238.277 225.932 232.761 227.494 228.263 230.619C223.812 233.697 220.427 238.242 218.107 244.256C215.834 250.222 214.697 257.561 214.697 266.273C214.697 274.985 215.834 282.348 218.107 288.361C220.427 294.327 223.812 298.872 228.263 301.997C232.761 305.075 238.277 306.614 244.811 306.614C251.345 306.614 256.838 305.075 261.288 301.997C265.786 298.872 269.172 294.327 271.445 288.361C273.765 282.348 274.925 274.985 274.925 266.273ZM428.281 241.557C427.665 239.047 426.694 236.846 425.369 234.952C424.043 233.01 422.386 231.377 420.397 230.051C418.456 228.678 416.183 227.66 413.579 226.997C411.022 226.287 408.205 225.932 405.127 225.932C398.498 225.932 392.84 227.518 388.153 230.69C383.513 233.863 379.961 238.432 377.499 244.398C375.085 250.364 373.877 257.561 373.877 265.989C373.877 274.511 375.037 281.803 377.357 287.864C379.677 293.924 383.134 298.564 387.727 301.784C392.319 305.004 398.025 306.614 404.843 306.614C410.856 306.614 415.852 305.738 419.829 303.986C423.853 302.234 426.86 299.748 428.849 296.528C430.837 293.309 431.832 289.521 431.832 285.165L438.65 285.875H405.411V257.75H469.9V277.92C469.9 291.178 467.083 302.518 461.448 311.94C455.861 321.315 448.143 328.512 438.295 333.531C428.494 338.503 417.248 340.989 404.559 340.989C390.402 340.989 377.973 337.982 367.272 331.969C356.571 325.955 348.214 317.385 342.201 306.259C336.235 295.132 333.252 281.898 333.252 266.557C333.252 254.53 335.075 243.877 338.721 234.597C342.414 225.316 347.528 217.48 354.062 211.088C360.596 204.649 368.148 199.795 376.718 196.528C385.288 193.214 394.474 191.557 404.275 191.557C412.892 191.557 420.894 192.788 428.281 195.25C435.714 197.665 442.272 201.121 447.954 205.619C453.683 210.07 458.299 215.349 461.803 221.457C465.307 227.565 467.438 234.265 468.195 241.557H428.281Z" fill="black"/>
<path d="M-176.5 212H685.5V350H-176.5V212Z" fill="white"/>
<path d="M119.847 263C119.468 258.265 117.692 254.572 114.52 251.92C111.395 249.269 106.636 247.943 100.244 247.943C96.1723 247.943 92.8343 248.44 90.2301 249.435C87.6733 250.382 85.7794 251.684 84.5483 253.341C83.3172 254.998 82.678 256.892 82.6307 259.023C82.536 260.775 82.8438 262.361 83.554 263.781C84.3116 265.154 85.4953 266.409 87.1051 267.545C88.715 268.634 90.7746 269.629 93.2841 270.528C95.7936 271.428 98.7765 272.233 102.233 272.943L114.165 275.5C122.214 277.205 129.103 279.454 134.832 282.247C140.562 285.041 145.249 288.331 148.895 292.119C152.541 295.86 155.216 300.074 156.92 304.761C158.672 309.449 159.572 314.562 159.619 320.102C159.572 329.667 157.181 337.763 152.446 344.392C147.711 351.021 140.94 356.063 132.134 359.52C123.374 362.976 112.839 364.705 100.528 364.705C87.8864 364.705 76.8542 362.834 67.4318 359.094C58.0568 355.353 50.7652 349.6 45.5568 341.835C40.3958 334.023 37.7917 324.032 37.7443 311.864H75.2443C75.4811 316.314 76.5938 320.055 78.5824 323.085C80.571 326.116 83.3646 328.412 86.9631 329.974C90.6089 331.537 94.9413 332.318 99.9602 332.318C104.174 332.318 107.702 331.797 110.543 330.756C113.384 329.714 115.538 328.27 117.006 326.423C118.473 324.577 119.231 322.47 119.278 320.102C119.231 317.877 118.497 315.936 117.077 314.278C115.704 312.574 113.431 311.059 110.259 309.733C107.086 308.36 102.801 307.081 97.4034 305.898L82.9148 302.773C70.036 299.979 59.8797 295.315 52.446 288.781C45.0597 282.2 41.3902 273.227 41.4375 261.864C41.3902 252.631 43.8523 244.558 48.8239 237.645C53.8428 230.685 60.7794 225.263 69.6335 221.381C78.535 217.498 88.7386 215.557 100.244 215.557C111.987 215.557 122.143 217.522 130.713 221.452C139.283 225.382 145.888 230.921 150.528 238.071C155.216 245.173 157.583 253.483 157.631 263H119.847ZM315.55 290.273C315.55 306.466 312.401 320.126 306.104 331.253C299.806 342.332 291.307 350.737 280.607 356.466C269.906 362.148 257.974 364.989 244.811 364.989C231.554 364.989 219.574 362.124 208.874 356.395C198.22 350.618 189.745 342.19 183.447 331.111C177.197 319.984 174.072 306.371 174.072 290.273C174.072 274.08 177.197 260.443 183.447 249.364C189.745 238.237 198.22 229.832 208.874 224.151C219.574 218.421 231.554 215.557 244.811 215.557C257.974 215.557 269.906 218.421 280.607 224.151C291.307 229.832 299.806 238.237 306.104 249.364C312.401 260.443 315.55 274.08 315.55 290.273ZM274.925 290.273C274.925 281.561 273.765 274.222 271.445 268.256C269.172 262.242 265.786 257.697 261.288 254.619C256.838 251.494 251.345 249.932 244.811 249.932C238.277 249.932 232.761 251.494 228.263 254.619C223.812 257.697 220.427 262.242 218.107 268.256C215.834 274.222 214.697 281.561 214.697 290.273C214.697 298.985 215.834 306.348 218.107 312.361C220.427 318.327 223.812 322.872 228.263 325.997C232.761 329.075 238.277 330.614 244.811 330.614C251.345 330.614 256.838 329.075 261.288 325.997C265.786 322.872 269.172 318.327 271.445 312.361C273.765 306.348 274.925 298.985 274.925 290.273ZM428.281 265.557C427.665 263.047 426.694 260.846 425.369 258.952C424.043 257.01 422.386 255.377 420.397 254.051C418.456 252.678 416.183 251.66 413.579 250.997C411.022 250.287 408.205 249.932 405.127 249.932C398.498 249.932 392.84 251.518 388.153 254.69C383.513 257.863 379.961 262.432 377.499 268.398C375.085 274.364 373.877 281.561 373.877 289.989C373.877 298.511 375.037 305.803 377.357 311.864C379.677 317.924 383.134 322.564 387.727 325.784C392.319 329.004 398.025 330.614 404.843 330.614C410.856 330.614 415.852 329.738 419.829 327.986C423.853 326.234 426.86 323.748 428.849 320.528C430.837 317.309 431.832 313.521 431.832 309.165L438.65 309.875H405.411V281.75H469.9V301.92C469.9 315.178 467.083 326.518 461.448 335.94C455.861 345.315 448.143 352.512 438.295 357.531C428.494 362.503 417.248 364.989 404.559 364.989C390.402 364.989 377.973 361.982 367.272 355.969C356.571 349.955 348.214 341.385 342.201 330.259C336.235 319.132 333.252 305.898 333.252 290.557C333.252 278.53 335.075 267.877 338.721 258.597C342.414 249.316 347.528 241.48 354.062 235.088C360.596 228.649 368.148 223.795 376.718 220.528C385.288 217.214 394.474 215.557 404.275 215.557C412.892 215.557 420.894 216.788 428.281 219.25C435.714 221.665 442.272 225.121 447.954 229.619C453.683 234.07 458.299 239.349 461.803 245.457C465.307 251.565 467.438 258.265 468.195 265.557H428.281Z" fill="black"/>
</g>
<defs>
<clipPath id="clip0_40_54">
<rect width="512" height="512" rx="200" fill="white"/>
</clipPath>
</defs>
</svg>
